<mxfile host="app.diagrams.net" agent="Mozilla/5.0 (Windows NT 10.0; Win64; x64) AppleWebKit/537.36 (KHTML, like Gecko) Chrome/131.0.0.0 Safari/537.36" version="25.0.3" pages="2">
  <diagram id="TGm6X1d6-LLkggPcGHZY" name="Modelo Entidad Relacion">
    <mxGraphModel dx="2876" dy="1111" grid="1" gridSize="10" guides="1" tooltips="1" connect="1" arrows="1" fold="1" page="1" pageScale="1" pageWidth="827" pageHeight="1169" math="0" shadow="0">
      <root>
        <mxCell id="0" />
        <mxCell id="1" parent="0" />
        <mxCell id="BRInbiWePgotsUmajxHO-3" style="edgeStyle=orthogonalEdgeStyle;rounded=0;orthogonalLoop=1;jettySize=auto;html=1;exitX=1;exitY=0.5;exitDx=0;exitDy=0;entryX=0;entryY=0.5;entryDx=0;entryDy=0;endArrow=none;endFill=0;" parent="1" source="ZVr4Kbi1Na81i9mRqXBr-1" target="BRInbiWePgotsUmajxHO-2" edge="1">
          <mxGeometry relative="1" as="geometry" />
        </mxCell>
        <mxCell id="-W3EkcvgGxvH3OZpbfAn-17" style="edgeStyle=orthogonalEdgeStyle;rounded=0;orthogonalLoop=1;jettySize=auto;html=1;entryX=1;entryY=0.5;entryDx=0;entryDy=0;endArrow=none;endFill=0;" parent="1" source="ZVr4Kbi1Na81i9mRqXBr-1" target="-W3EkcvgGxvH3OZpbfAn-8" edge="1">
          <mxGeometry relative="1" as="geometry" />
        </mxCell>
        <mxCell id="-W3EkcvgGxvH3OZpbfAn-18" style="edgeStyle=orthogonalEdgeStyle;rounded=0;orthogonalLoop=1;jettySize=auto;html=1;entryX=1;entryY=0.5;entryDx=0;entryDy=0;endArrow=none;endFill=0;" parent="1" source="ZVr4Kbi1Na81i9mRqXBr-1" target="-W3EkcvgGxvH3OZpbfAn-12" edge="1">
          <mxGeometry relative="1" as="geometry" />
        </mxCell>
        <mxCell id="-W3EkcvgGxvH3OZpbfAn-20" style="edgeStyle=orthogonalEdgeStyle;rounded=0;orthogonalLoop=1;jettySize=auto;html=1;entryX=1;entryY=0.5;entryDx=0;entryDy=0;endArrow=none;endFill=0;" parent="1" source="ZVr4Kbi1Na81i9mRqXBr-1" target="-W3EkcvgGxvH3OZpbfAn-10" edge="1">
          <mxGeometry relative="1" as="geometry" />
        </mxCell>
        <mxCell id="-W3EkcvgGxvH3OZpbfAn-22" style="edgeStyle=orthogonalEdgeStyle;rounded=0;orthogonalLoop=1;jettySize=auto;html=1;entryX=1;entryY=0.5;entryDx=0;entryDy=0;endArrow=none;endFill=0;" parent="1" source="ZVr4Kbi1Na81i9mRqXBr-1" target="-W3EkcvgGxvH3OZpbfAn-21" edge="1">
          <mxGeometry relative="1" as="geometry" />
        </mxCell>
        <mxCell id="-W3EkcvgGxvH3OZpbfAn-24" style="edgeStyle=orthogonalEdgeStyle;rounded=0;orthogonalLoop=1;jettySize=auto;html=1;entryX=1;entryY=0.5;entryDx=0;entryDy=0;endArrow=none;endFill=0;" parent="1" source="ZVr4Kbi1Na81i9mRqXBr-1" target="-W3EkcvgGxvH3OZpbfAn-23" edge="1">
          <mxGeometry relative="1" as="geometry" />
        </mxCell>
        <mxCell id="-W3EkcvgGxvH3OZpbfAn-26" style="edgeStyle=orthogonalEdgeStyle;rounded=0;orthogonalLoop=1;jettySize=auto;html=1;entryX=1;entryY=0.5;entryDx=0;entryDy=0;endArrow=none;endFill=0;" parent="1" source="ZVr4Kbi1Na81i9mRqXBr-1" target="-W3EkcvgGxvH3OZpbfAn-25" edge="1">
          <mxGeometry relative="1" as="geometry" />
        </mxCell>
        <mxCell id="-W3EkcvgGxvH3OZpbfAn-28" style="edgeStyle=orthogonalEdgeStyle;rounded=0;orthogonalLoop=1;jettySize=auto;html=1;entryX=1;entryY=0.5;entryDx=0;entryDy=0;endArrow=none;endFill=0;" parent="1" source="ZVr4Kbi1Na81i9mRqXBr-1" target="-W3EkcvgGxvH3OZpbfAn-27" edge="1">
          <mxGeometry relative="1" as="geometry" />
        </mxCell>
        <mxCell id="ZVr4Kbi1Na81i9mRqXBr-1" value="Usuario" style="rounded=1;whiteSpace=wrap;html=1;fontSize=12;glass=0;strokeWidth=1;shadow=0;" parent="1" vertex="1">
          <mxGeometry x="-530" y="163.75" width="120" height="40" as="geometry" />
        </mxCell>
        <mxCell id="-W3EkcvgGxvH3OZpbfAn-99" value="" style="edgeStyle=orthogonalEdgeStyle;rounded=0;orthogonalLoop=1;jettySize=auto;html=1;entryX=0.5;entryY=1;entryDx=0;entryDy=0;" parent="1" source="ZVr4Kbi1Na81i9mRqXBr-2" target="AQUYisIw5RWC7NUJ68C2-2" edge="1">
          <mxGeometry relative="1" as="geometry" />
        </mxCell>
        <mxCell id="-W3EkcvgGxvH3OZpbfAn-100" style="edgeStyle=orthogonalEdgeStyle;rounded=0;orthogonalLoop=1;jettySize=auto;html=1;entryX=0.5;entryY=0;entryDx=0;entryDy=0;endArrow=none;endFill=0;" parent="1" source="ZVr4Kbi1Na81i9mRqXBr-2" target="HIgewty7gx-F5gWbF37v-1" edge="1">
          <mxGeometry relative="1" as="geometry" />
        </mxCell>
        <mxCell id="JfMjbdt3IaxvPo4gDNUp-1" value="" style="edgeStyle=orthogonalEdgeStyle;rounded=0;orthogonalLoop=1;jettySize=auto;html=1;endArrow=none;endFill=0;" parent="1" source="ZVr4Kbi1Na81i9mRqXBr-2" target="PLP8Pyuhg4ZwFfDlURbS-1" edge="1">
          <mxGeometry relative="1" as="geometry" />
        </mxCell>
        <mxCell id="JfMjbdt3IaxvPo4gDNUp-2" style="edgeStyle=orthogonalEdgeStyle;rounded=0;orthogonalLoop=1;jettySize=auto;html=1;entryX=1;entryY=0.5;entryDx=0;entryDy=0;endArrow=none;endFill=0;" parent="1" source="ZVr4Kbi1Na81i9mRqXBr-2" target="-W3EkcvgGxvH3OZpbfAn-49" edge="1">
          <mxGeometry relative="1" as="geometry" />
        </mxCell>
        <mxCell id="JfMjbdt3IaxvPo4gDNUp-3" style="edgeStyle=orthogonalEdgeStyle;rounded=0;orthogonalLoop=1;jettySize=auto;html=1;entryX=1;entryY=0.5;entryDx=0;entryDy=0;endArrow=none;endFill=0;" parent="1" source="ZVr4Kbi1Na81i9mRqXBr-2" target="-W3EkcvgGxvH3OZpbfAn-50" edge="1">
          <mxGeometry relative="1" as="geometry" />
        </mxCell>
        <mxCell id="JfMjbdt3IaxvPo4gDNUp-4" style="edgeStyle=orthogonalEdgeStyle;rounded=0;orthogonalLoop=1;jettySize=auto;html=1;entryX=1;entryY=0.5;entryDx=0;entryDy=0;endArrow=none;endFill=0;" parent="1" source="ZVr4Kbi1Na81i9mRqXBr-2" target="-W3EkcvgGxvH3OZpbfAn-51" edge="1">
          <mxGeometry relative="1" as="geometry" />
        </mxCell>
        <mxCell id="JfMjbdt3IaxvPo4gDNUp-5" style="edgeStyle=orthogonalEdgeStyle;rounded=0;orthogonalLoop=1;jettySize=auto;html=1;entryX=1;entryY=0.5;entryDx=0;entryDy=0;endArrow=none;endFill=0;" parent="1" source="ZVr4Kbi1Na81i9mRqXBr-2" target="-W3EkcvgGxvH3OZpbfAn-52" edge="1">
          <mxGeometry relative="1" as="geometry" />
        </mxCell>
        <mxCell id="QXuAp1z63WRNJgjyR6KG-4" style="edgeStyle=orthogonalEdgeStyle;rounded=0;orthogonalLoop=1;jettySize=auto;html=1;entryX=1;entryY=0.5;entryDx=0;entryDy=0;endArrow=none;endFill=0;" parent="1" source="ZVr4Kbi1Na81i9mRqXBr-2" target="QXuAp1z63WRNJgjyR6KG-1" edge="1">
          <mxGeometry relative="1" as="geometry" />
        </mxCell>
        <mxCell id="QXuAp1z63WRNJgjyR6KG-6" style="edgeStyle=orthogonalEdgeStyle;rounded=0;orthogonalLoop=1;jettySize=auto;html=1;endArrow=none;endFill=0;entryX=1;entryY=0.5;entryDx=0;entryDy=0;" parent="1" source="ZVr4Kbi1Na81i9mRqXBr-2" target="QXuAp1z63WRNJgjyR6KG-5" edge="1">
          <mxGeometry relative="1" as="geometry" />
        </mxCell>
        <mxCell id="ZVr4Kbi1Na81i9mRqXBr-2" value="Producto" style="rounded=1;whiteSpace=wrap;html=1;fontSize=12;glass=0;strokeWidth=1;shadow=0;" parent="1" vertex="1">
          <mxGeometry x="-130.07" y="557.5" width="120" height="40" as="geometry" />
        </mxCell>
        <mxCell id="7gZbKg2dCzjFlyA7e1SE-2" value="" style="edgeStyle=orthogonalEdgeStyle;rounded=0;orthogonalLoop=1;jettySize=auto;html=1;endArrow=none;endFill=0;" parent="1" source="ZVr4Kbi1Na81i9mRqXBr-3" target="7gZbKg2dCzjFlyA7e1SE-1" edge="1">
          <mxGeometry relative="1" as="geometry" />
        </mxCell>
        <mxCell id="-W3EkcvgGxvH3OZpbfAn-33" value="" style="edgeStyle=orthogonalEdgeStyle;rounded=0;orthogonalLoop=1;jettySize=auto;html=1;endArrow=none;endFill=0;" parent="1" source="ZVr4Kbi1Na81i9mRqXBr-3" target="-W3EkcvgGxvH3OZpbfAn-30" edge="1">
          <mxGeometry relative="1" as="geometry" />
        </mxCell>
        <mxCell id="-W3EkcvgGxvH3OZpbfAn-34" style="edgeStyle=orthogonalEdgeStyle;rounded=0;orthogonalLoop=1;jettySize=auto;html=1;entryX=0.5;entryY=1;entryDx=0;entryDy=0;exitX=0.5;exitY=0;exitDx=0;exitDy=0;endArrow=none;endFill=0;" parent="1" source="ZVr4Kbi1Na81i9mRqXBr-3" target="-W3EkcvgGxvH3OZpbfAn-29" edge="1">
          <mxGeometry relative="1" as="geometry" />
        </mxCell>
        <mxCell id="0ua6qyDJJBUqq2Hq9dzX-4" style="edgeStyle=orthogonalEdgeStyle;rounded=0;orthogonalLoop=1;jettySize=auto;html=1;entryX=0.5;entryY=1;entryDx=0;entryDy=0;exitX=0.5;exitY=0;exitDx=0;exitDy=0;endArrow=none;endFill=0;" parent="1" source="ZVr4Kbi1Na81i9mRqXBr-3" target="0ua6qyDJJBUqq2Hq9dzX-3" edge="1">
          <mxGeometry relative="1" as="geometry" />
        </mxCell>
        <mxCell id="ZVr4Kbi1Na81i9mRqXBr-3" value="Pedido" style="rounded=1;whiteSpace=wrap;html=1;fontSize=12;glass=0;strokeWidth=1;shadow=0;" parent="1" vertex="1">
          <mxGeometry x="-130" y="163.75" width="120" height="40" as="geometry" />
        </mxCell>
        <mxCell id="6EGvaJqGGsd8B0oyD8RD-8" style="rounded=0;orthogonalLoop=1;jettySize=auto;html=1;entryX=0.5;entryY=1;entryDx=0;entryDy=0;edgeStyle=orthogonalEdgeStyle;strokeColor=default;curved=0;endArrow=none;endFill=0;" parent="1" source="ZVr4Kbi1Na81i9mRqXBr-4" target="BRInbiWePgotsUmajxHO-1" edge="1">
          <mxGeometry relative="1" as="geometry">
            <mxPoint x="-385" y="581.8700000000001" as="targetPoint" />
          </mxGeometry>
        </mxCell>
        <mxCell id="-W3EkcvgGxvH3OZpbfAn-62" style="edgeStyle=orthogonalEdgeStyle;rounded=0;orthogonalLoop=1;jettySize=auto;html=1;entryX=0.5;entryY=0;entryDx=0;entryDy=0;endArrow=none;endFill=0;exitX=0.5;exitY=1;exitDx=0;exitDy=0;" parent="1" source="ZVr4Kbi1Na81i9mRqXBr-4" target="-W3EkcvgGxvH3OZpbfAn-59" edge="1">
          <mxGeometry relative="1" as="geometry" />
        </mxCell>
        <mxCell id="-W3EkcvgGxvH3OZpbfAn-63" style="edgeStyle=orthogonalEdgeStyle;rounded=0;orthogonalLoop=1;jettySize=auto;html=1;entryX=0.5;entryY=0;entryDx=0;entryDy=0;endArrow=none;endFill=0;" parent="1" source="ZVr4Kbi1Na81i9mRqXBr-4" target="-W3EkcvgGxvH3OZpbfAn-60" edge="1">
          <mxGeometry relative="1" as="geometry" />
        </mxCell>
        <mxCell id="KpYN-lRRDEY_0RzQuRkS-2" style="edgeStyle=orthogonalEdgeStyle;rounded=0;orthogonalLoop=1;jettySize=auto;html=1;exitX=0.5;exitY=1;exitDx=0;exitDy=0;endArrow=none;endFill=0;" parent="1" source="ZVr4Kbi1Na81i9mRqXBr-4" target="KpYN-lRRDEY_0RzQuRkS-1" edge="1">
          <mxGeometry relative="1" as="geometry" />
        </mxCell>
        <mxCell id="ZVr4Kbi1Na81i9mRqXBr-4" value="Ingrediente" style="rounded=1;whiteSpace=wrap;html=1;fontSize=12;glass=0;strokeWidth=1;shadow=0;" parent="1" vertex="1">
          <mxGeometry x="-130.07" y="883.75" width="120" height="40" as="geometry" />
        </mxCell>
        <mxCell id="AQUYisIw5RWC7NUJ68C2-3" value="" style="edgeStyle=orthogonalEdgeStyle;rounded=0;orthogonalLoop=1;jettySize=auto;html=1;endArrow=none;endFill=0;" parent="1" source="ZVr4Kbi1Na81i9mRqXBr-5" target="AQUYisIw5RWC7NUJ68C2-2" edge="1">
          <mxGeometry relative="1" as="geometry" />
        </mxCell>
        <mxCell id="-W3EkcvgGxvH3OZpbfAn-44" style="edgeStyle=orthogonalEdgeStyle;rounded=0;orthogonalLoop=1;jettySize=auto;html=1;entryX=0;entryY=0.5;entryDx=0;entryDy=0;endArrow=none;endFill=0;" parent="1" source="ZVr4Kbi1Na81i9mRqXBr-5" target="-W3EkcvgGxvH3OZpbfAn-37" edge="1">
          <mxGeometry relative="1" as="geometry" />
        </mxCell>
        <mxCell id="-W3EkcvgGxvH3OZpbfAn-48" style="edgeStyle=orthogonalEdgeStyle;rounded=0;orthogonalLoop=1;jettySize=auto;html=1;entryX=0;entryY=0.5;entryDx=0;entryDy=0;endArrow=none;endFill=0;" parent="1" source="ZVr4Kbi1Na81i9mRqXBr-5" target="-W3EkcvgGxvH3OZpbfAn-40" edge="1">
          <mxGeometry relative="1" as="geometry" />
        </mxCell>
        <mxCell id="ZVr4Kbi1Na81i9mRqXBr-5" value="Detalle_Pedido" style="rounded=0;whiteSpace=wrap;html=1;" parent="1" vertex="1">
          <mxGeometry x="-190" y="323.75" width="240" height="40" as="geometry" />
        </mxCell>
        <mxCell id="6EGvaJqGGsd8B0oyD8RD-4" style="edgeStyle=orthogonalEdgeStyle;rounded=0;orthogonalLoop=1;jettySize=auto;html=1;entryX=0;entryY=0.5;entryDx=0;entryDy=0;exitX=0.5;exitY=0;exitDx=0;exitDy=0;startArrow=none;startFill=0;endArrow=none;endFill=0;" parent="1" source="BRInbiWePgotsUmajxHO-1" target="ZVr4Kbi1Na81i9mRqXBr-5" edge="1">
          <mxGeometry relative="1" as="geometry">
            <mxPoint x="-385" y="513.75" as="sourcePoint" />
          </mxGeometry>
        </mxCell>
        <mxCell id="JfMjbdt3IaxvPo4gDNUp-15" style="edgeStyle=orthogonalEdgeStyle;rounded=0;orthogonalLoop=1;jettySize=auto;html=1;entryX=0;entryY=0.5;entryDx=0;entryDy=0;endArrow=none;endFill=0;" parent="1" source="0SPrNcQa3tnwA7gcO62S-1" target="JfMjbdt3IaxvPo4gDNUp-9" edge="1">
          <mxGeometry relative="1" as="geometry" />
        </mxCell>
        <mxCell id="JfMjbdt3IaxvPo4gDNUp-16" style="edgeStyle=orthogonalEdgeStyle;rounded=0;orthogonalLoop=1;jettySize=auto;html=1;entryX=0;entryY=0.5;entryDx=0;entryDy=0;endArrow=none;endFill=0;" parent="1" source="0SPrNcQa3tnwA7gcO62S-1" target="JfMjbdt3IaxvPo4gDNUp-8" edge="1">
          <mxGeometry relative="1" as="geometry" />
        </mxCell>
        <mxCell id="JfMjbdt3IaxvPo4gDNUp-17" style="edgeStyle=orthogonalEdgeStyle;rounded=0;orthogonalLoop=1;jettySize=auto;html=1;entryX=0;entryY=0.5;entryDx=0;entryDy=0;endArrow=none;endFill=0;" parent="1" source="0SPrNcQa3tnwA7gcO62S-1" target="JfMjbdt3IaxvPo4gDNUp-12" edge="1">
          <mxGeometry relative="1" as="geometry" />
        </mxCell>
        <mxCell id="JfMjbdt3IaxvPo4gDNUp-18" style="edgeStyle=orthogonalEdgeStyle;rounded=0;orthogonalLoop=1;jettySize=auto;html=1;entryX=0;entryY=0.5;entryDx=0;entryDy=0;endArrow=none;endFill=0;" parent="1" source="0SPrNcQa3tnwA7gcO62S-1" target="JfMjbdt3IaxvPo4gDNUp-13" edge="1">
          <mxGeometry relative="1" as="geometry" />
        </mxCell>
        <mxCell id="zYOUfVRbWbdnZnZJbM3p-2" style="edgeStyle=orthogonalEdgeStyle;rounded=0;orthogonalLoop=1;jettySize=auto;html=1;endArrow=none;endFill=0;" parent="1" source="0SPrNcQa3tnwA7gcO62S-1" target="zYOUfVRbWbdnZnZJbM3p-1" edge="1">
          <mxGeometry relative="1" as="geometry" />
        </mxCell>
        <mxCell id="0SPrNcQa3tnwA7gcO62S-1" value="Oferta" style="rounded=1;whiteSpace=wrap;html=1;fontSize=12;glass=0;strokeWidth=1;shadow=0;" parent="1" vertex="1">
          <mxGeometry x="50" y="717.5" width="120" height="40" as="geometry" />
        </mxCell>
        <mxCell id="HIgewty7gx-F5gWbF37v-3" value="" style="edgeStyle=orthogonalEdgeStyle;rounded=0;orthogonalLoop=1;jettySize=auto;html=1;endArrow=none;endFill=0;" parent="1" source="HIgewty7gx-F5gWbF37v-1" target="ZVr4Kbi1Na81i9mRqXBr-4" edge="1">
          <mxGeometry relative="1" as="geometry" />
        </mxCell>
        <mxCell id="-W3EkcvgGxvH3OZpbfAn-91" style="edgeStyle=orthogonalEdgeStyle;rounded=0;orthogonalLoop=1;jettySize=auto;html=1;entryX=1;entryY=0.5;entryDx=0;entryDy=0;endArrow=none;endFill=0;" parent="1" source="HIgewty7gx-F5gWbF37v-1" target="-W3EkcvgGxvH3OZpbfAn-88" edge="1">
          <mxGeometry relative="1" as="geometry" />
        </mxCell>
        <mxCell id="HIgewty7gx-F5gWbF37v-1" value="Cantidad&lt;div&gt;Ingredientes&lt;/div&gt;" style="rhombus;whiteSpace=wrap;html=1;shadow=0;fontFamily=Helvetica;fontSize=12;align=center;strokeWidth=1;spacing=6;spacingTop=-4;" parent="1" vertex="1">
          <mxGeometry x="-97.25" y="733.75" width="54.37" height="60" as="geometry" />
        </mxCell>
        <mxCell id="-W3EkcvgGxvH3OZpbfAn-71" style="edgeStyle=orthogonalEdgeStyle;rounded=0;orthogonalLoop=1;jettySize=auto;html=1;endArrow=none;endFill=0;" parent="1" source="BRInbiWePgotsUmajxHO-1" target="-W3EkcvgGxvH3OZpbfAn-66" edge="1">
          <mxGeometry relative="1" as="geometry" />
        </mxCell>
        <mxCell id="BRInbiWePgotsUmajxHO-1" value="Modificar&lt;div&gt;Ingredientes&lt;/div&gt;" style="rhombus;whiteSpace=wrap;html=1;shadow=0;fontFamily=Helvetica;fontSize=12;align=center;strokeWidth=1;spacing=6;spacingTop=-4;" parent="1" vertex="1">
          <mxGeometry x="-420" y="580.63" width="70" height="68.12" as="geometry" />
        </mxCell>
        <mxCell id="BRInbiWePgotsUmajxHO-4" style="edgeStyle=orthogonalEdgeStyle;rounded=0;orthogonalLoop=1;jettySize=auto;html=1;entryX=0;entryY=0.5;entryDx=0;entryDy=0;endArrow=none;endFill=0;" parent="1" source="BRInbiWePgotsUmajxHO-2" target="ZVr4Kbi1Na81i9mRqXBr-3" edge="1">
          <mxGeometry relative="1" as="geometry" />
        </mxCell>
        <mxCell id="BRInbiWePgotsUmajxHO-2" value="Compra" style="rhombus;whiteSpace=wrap;html=1;shadow=0;fontFamily=Helvetica;fontSize=12;align=center;strokeWidth=1;spacing=6;spacingTop=-4;" parent="1" vertex="1">
          <mxGeometry x="-300" y="150" width="60" height="67.5" as="geometry" />
        </mxCell>
        <mxCell id="PLP8Pyuhg4ZwFfDlURbS-3" value="" style="edgeStyle=orthogonalEdgeStyle;rounded=0;orthogonalLoop=1;jettySize=auto;html=1;endArrow=none;endFill=0;" parent="1" source="PLP8Pyuhg4ZwFfDlURbS-1" target="0SPrNcQa3tnwA7gcO62S-1" edge="1">
          <mxGeometry relative="1" as="geometry" />
        </mxCell>
        <mxCell id="PLP8Pyuhg4ZwFfDlURbS-1" value="Se le aplica" style="rhombus;whiteSpace=wrap;html=1;shadow=0;fontFamily=Helvetica;fontSize=12;align=center;strokeWidth=1;spacing=6;spacingTop=-4;" parent="1" vertex="1">
          <mxGeometry x="80" y="543.75" width="60" height="67.5" as="geometry" />
        </mxCell>
        <mxCell id="zB8p53L1GKtWNdtfz_ig-1" value="(1,N)" style="text;html=1;align=center;verticalAlign=middle;resizable=0;points=[];autosize=1;strokeColor=none;fillColor=none;" parent="1" vertex="1">
          <mxGeometry x="-180" y="153.75" width="50" height="30" as="geometry" />
        </mxCell>
        <mxCell id="zB8p53L1GKtWNdtfz_ig-3" value="(1,1)" style="text;html=1;align=center;verticalAlign=middle;resizable=0;points=[];autosize=1;strokeColor=none;fillColor=none;" parent="1" vertex="1">
          <mxGeometry x="-410" y="150" width="50" height="30" as="geometry" />
        </mxCell>
        <mxCell id="zB8p53L1GKtWNdtfz_ig-4" value="(1,N)" style="text;html=1;align=center;verticalAlign=middle;resizable=0;points=[];autosize=1;strokeColor=none;fillColor=none;" parent="1" vertex="1">
          <mxGeometry x="-295" y="118.75" width="50" height="30" as="geometry" />
        </mxCell>
        <mxCell id="uM5NJXNVHRYu17nREynq-1" value="(1,1)" style="text;html=1;align=center;verticalAlign=middle;resizable=0;points=[];autosize=1;strokeColor=none;fillColor=none;rotation=0;" parent="1" vertex="1">
          <mxGeometry x="110" y="687.5" width="50" height="30" as="geometry" />
        </mxCell>
        <mxCell id="2nQRBEafZlddCQpiiwYS-1" value="(1,N)" style="text;html=1;align=center;verticalAlign=middle;resizable=0;points=[];autosize=1;strokeColor=none;fillColor=none;rotation=0;" parent="1" vertex="1">
          <mxGeometry x="-10" y="543.75" width="50" height="30" as="geometry" />
        </mxCell>
        <mxCell id="2nQRBEafZlddCQpiiwYS-2" value="(1,N)" style="text;html=1;align=center;verticalAlign=middle;resizable=0;points=[];autosize=1;strokeColor=none;fillColor=none;rotation=0;" parent="1" vertex="1">
          <mxGeometry x="85" y="506.55999999999995" width="50" height="30" as="geometry" />
        </mxCell>
        <mxCell id="7gZbKg2dCzjFlyA7e1SE-3" value="" style="edgeStyle=orthogonalEdgeStyle;rounded=0;orthogonalLoop=1;jettySize=auto;html=1;endArrow=none;endFill=0;" parent="1" source="7gZbKg2dCzjFlyA7e1SE-1" target="ZVr4Kbi1Na81i9mRqXBr-5" edge="1">
          <mxGeometry relative="1" as="geometry" />
        </mxCell>
        <mxCell id="7gZbKg2dCzjFlyA7e1SE-1" value="Existen" style="rhombus;whiteSpace=wrap;html=1;shadow=0;fontFamily=Helvetica;fontSize=12;align=center;strokeWidth=1;spacing=6;spacingTop=-4;" parent="1" vertex="1">
          <mxGeometry x="-100" y="243.75" width="60" height="50" as="geometry" />
        </mxCell>
        <mxCell id="7gZbKg2dCzjFlyA7e1SE-5" value="(1,N)" style="text;html=1;align=center;verticalAlign=middle;resizable=0;points=[];autosize=1;strokeColor=none;fillColor=none;" parent="1" vertex="1">
          <mxGeometry x="-120" y="293.75" width="50" height="30" as="geometry" />
        </mxCell>
        <mxCell id="7gZbKg2dCzjFlyA7e1SE-6" value="(1,1)" style="text;html=1;align=center;verticalAlign=middle;resizable=0;points=[];autosize=1;strokeColor=none;fillColor=none;" parent="1" vertex="1">
          <mxGeometry x="-120" y="203.75" width="50" height="30" as="geometry" />
        </mxCell>
        <mxCell id="7gZbKg2dCzjFlyA7e1SE-7" value="(1,N)" style="text;html=1;align=center;verticalAlign=middle;resizable=0;points=[];autosize=1;strokeColor=none;fillColor=none;" parent="1" vertex="1">
          <mxGeometry x="-146" y="253.75" width="50" height="30" as="geometry" />
        </mxCell>
        <mxCell id="AQUYisIw5RWC7NUJ68C2-2" value="Existen" style="rhombus;whiteSpace=wrap;html=1;shadow=0;fontFamily=Helvetica;fontSize=12;align=center;strokeWidth=1;spacing=6;spacingTop=-4;" parent="1" vertex="1">
          <mxGeometry x="-100" y="443.75" width="60" height="50" as="geometry" />
        </mxCell>
        <mxCell id="AQUYisIw5RWC7NUJ68C2-6" value="(1,N)" style="text;html=1;align=center;verticalAlign=middle;resizable=0;points=[];autosize=1;strokeColor=none;fillColor=none;" parent="1" vertex="1">
          <mxGeometry x="-120" y="363.75" width="50" height="30" as="geometry" />
        </mxCell>
        <mxCell id="AQUYisIw5RWC7NUJ68C2-7" value="(1,1)" style="text;html=1;align=center;verticalAlign=middle;resizable=0;points=[];autosize=1;strokeColor=none;fillColor=none;" parent="1" vertex="1">
          <mxGeometry x="-120" y="525.62" width="50" height="30" as="geometry" />
        </mxCell>
        <mxCell id="YjUV_3VBTV-NjaZgRcIz-1" value="(1,N)" style="text;html=1;align=center;verticalAlign=middle;resizable=0;points=[];autosize=1;strokeColor=none;fillColor=none;rotation=0;" parent="1" vertex="1">
          <mxGeometry x="-76.88" y="853.75" width="50" height="30" as="geometry" />
        </mxCell>
        <mxCell id="YjUV_3VBTV-NjaZgRcIz-2" value="(1,N)" style="text;html=1;align=center;verticalAlign=middle;resizable=0;points=[];autosize=1;strokeColor=none;fillColor=none;rotation=0;" parent="1" vertex="1">
          <mxGeometry x="-70" y="600.63" width="50" height="30" as="geometry" />
        </mxCell>
        <mxCell id="YjUV_3VBTV-NjaZgRcIz-3" value="(1,N)" style="text;html=1;align=center;verticalAlign=middle;resizable=0;points=[];autosize=1;strokeColor=none;fillColor=none;" parent="1" vertex="1">
          <mxGeometry x="-150.00000000000006" y="453.75" width="50" height="30" as="geometry" />
        </mxCell>
        <mxCell id="-W3EkcvgGxvH3OZpbfAn-1" value="(1,N)" style="text;html=1;align=center;verticalAlign=middle;resizable=0;points=[];autosize=1;strokeColor=none;fillColor=none;rotation=0;" parent="1" vertex="1">
          <mxGeometry x="-240" y="313.75" width="50" height="30" as="geometry" />
        </mxCell>
        <mxCell id="-W3EkcvgGxvH3OZpbfAn-3" value="(1,N)" style="text;html=1;align=center;verticalAlign=middle;resizable=0;points=[];autosize=1;strokeColor=none;fillColor=none;rotation=0;" parent="1" vertex="1">
          <mxGeometry x="-186.88" y="910" width="50" height="30" as="geometry" />
        </mxCell>
        <mxCell id="-W3EkcvgGxvH3OZpbfAn-4" value="(N,M)" style="text;html=1;align=center;verticalAlign=middle;resizable=0;points=[];autosize=1;strokeColor=none;fillColor=none;rotation=0;" parent="1" vertex="1">
          <mxGeometry x="-360" y="599.6899999999999" width="50" height="30" as="geometry" />
        </mxCell>
        <mxCell id="-W3EkcvgGxvH3OZpbfAn-8" value="&lt;b&gt;&lt;u&gt;id_usuario&lt;/u&gt;&lt;/b&gt;" style="rounded=1;whiteSpace=wrap;html=1;fontSize=12;glass=0;strokeWidth=1;shadow=0;" parent="1" vertex="1">
          <mxGeometry x="-740" y="40" width="120" height="40" as="geometry" />
        </mxCell>
        <mxCell id="-W3EkcvgGxvH3OZpbfAn-12" value="Apellidos" style="rounded=1;whiteSpace=wrap;html=1;fontSize=12;glass=0;strokeWidth=1;shadow=0;" parent="1" vertex="1">
          <mxGeometry x="-740" y="93.75" width="120" height="40" as="geometry" />
        </mxCell>
        <mxCell id="-W3EkcvgGxvH3OZpbfAn-10" value="Nombre" style="rounded=1;whiteSpace=wrap;html=1;fontSize=12;glass=0;strokeWidth=1;shadow=0;" parent="1" vertex="1">
          <mxGeometry x="-740" y="147.5" width="120" height="40" as="geometry" />
        </mxCell>
        <mxCell id="-W3EkcvgGxvH3OZpbfAn-21" value="Correo" style="rounded=1;whiteSpace=wrap;html=1;fontSize=12;glass=0;strokeWidth=1;shadow=0;" parent="1" vertex="1">
          <mxGeometry x="-740" y="203.75" width="120" height="40" as="geometry" />
        </mxCell>
        <mxCell id="-W3EkcvgGxvH3OZpbfAn-23" value="Contraseña" style="rounded=1;whiteSpace=wrap;html=1;fontSize=12;glass=0;strokeWidth=1;shadow=0;" parent="1" vertex="1">
          <mxGeometry x="-740" y="263.75" width="120" height="40" as="geometry" />
        </mxCell>
        <mxCell id="-W3EkcvgGxvH3OZpbfAn-25" value="Direccion" style="rounded=1;whiteSpace=wrap;html=1;fontSize=12;glass=0;strokeWidth=1;shadow=0;" parent="1" vertex="1">
          <mxGeometry x="-740" y="323.75" width="120" height="40" as="geometry" />
        </mxCell>
        <mxCell id="-W3EkcvgGxvH3OZpbfAn-27" value="Rol" style="rounded=1;whiteSpace=wrap;html=1;fontSize=12;glass=0;strokeWidth=1;shadow=0;" parent="1" vertex="1">
          <mxGeometry x="-740" y="383.75" width="120" height="40" as="geometry" />
        </mxCell>
        <mxCell id="-W3EkcvgGxvH3OZpbfAn-29" value="&lt;b&gt;&lt;u&gt;id_pedido&lt;/u&gt;&lt;/b&gt;" style="rounded=1;whiteSpace=wrap;html=1;fontSize=12;glass=0;strokeWidth=1;shadow=0;" parent="1" vertex="1">
          <mxGeometry x="-272.19" y="53.75" width="120" height="40" as="geometry" />
        </mxCell>
        <mxCell id="-W3EkcvgGxvH3OZpbfAn-30" value="Fecha" style="rounded=1;whiteSpace=wrap;html=1;fontSize=12;glass=0;strokeWidth=1;shadow=0;" parent="1" vertex="1">
          <mxGeometry x="-130" y="53.75" width="120" height="40" as="geometry" />
        </mxCell>
        <mxCell id="-W3EkcvgGxvH3OZpbfAn-37" value="&lt;b style=&quot;&quot;&gt;id_dpedido&lt;/b&gt;" style="rounded=1;whiteSpace=wrap;html=1;fontSize=12;glass=0;strokeWidth=1;shadow=0;" parent="1" vertex="1">
          <mxGeometry x="120" y="293.75" width="120" height="40" as="geometry" />
        </mxCell>
        <mxCell id="-W3EkcvgGxvH3OZpbfAn-40" value="cantidad" style="rounded=1;whiteSpace=wrap;html=1;fontSize=12;glass=0;strokeWidth=1;shadow=0;" parent="1" vertex="1">
          <mxGeometry x="120" y="353.75" width="120" height="40" as="geometry" />
        </mxCell>
        <mxCell id="-W3EkcvgGxvH3OZpbfAn-49" value="&lt;b&gt;&lt;u&gt;id_producto&lt;/u&gt;&lt;/b&gt;" style="rounded=1;whiteSpace=wrap;html=1;fontSize=12;glass=0;strokeWidth=1;shadow=0;" parent="1" vertex="1">
          <mxGeometry x="-310" y="434.21" width="120" height="40" as="geometry" />
        </mxCell>
        <mxCell id="-W3EkcvgGxvH3OZpbfAn-50" value="nombre" style="rounded=1;whiteSpace=wrap;html=1;fontSize=12;glass=0;strokeWidth=1;shadow=0;" parent="1" vertex="1">
          <mxGeometry x="-310" y="531.09" width="120" height="40" as="geometry" />
        </mxCell>
        <mxCell id="-W3EkcvgGxvH3OZpbfAn-51" value="descripcion" style="rounded=1;whiteSpace=wrap;html=1;fontSize=12;glass=0;strokeWidth=1;shadow=0;" parent="1" vertex="1">
          <mxGeometry x="-310" y="578.9" width="120" height="40" as="geometry" />
        </mxCell>
        <mxCell id="-W3EkcvgGxvH3OZpbfAn-52" value="precio" style="rounded=1;whiteSpace=wrap;html=1;fontSize=12;glass=0;strokeWidth=1;shadow=0;" parent="1" vertex="1">
          <mxGeometry x="-310" y="626.09" width="120" height="40" as="geometry" />
        </mxCell>
        <mxCell id="-W3EkcvgGxvH3OZpbfAn-59" value="&lt;u&gt;&lt;b&gt;id_ingrediente&lt;/b&gt;&lt;/u&gt;" style="rounded=1;whiteSpace=wrap;html=1;fontSize=12;glass=0;strokeWidth=1;shadow=0;" parent="1" vertex="1">
          <mxGeometry x="-265.07" y="970" width="120" height="40" as="geometry" />
        </mxCell>
        <mxCell id="-W3EkcvgGxvH3OZpbfAn-60" value="nombre" style="rounded=1;whiteSpace=wrap;html=1;fontSize=12;glass=0;strokeWidth=1;shadow=0;" parent="1" vertex="1">
          <mxGeometry x="-131.07" y="970" width="120" height="40" as="geometry" />
        </mxCell>
        <mxCell id="-W3EkcvgGxvH3OZpbfAn-66" value="cantidad" style="rounded=1;whiteSpace=wrap;html=1;fontSize=12;glass=0;strokeWidth=1;shadow=0;" parent="1" vertex="1">
          <mxGeometry x="-580" y="594.6899999999999" width="120" height="40" as="geometry" />
        </mxCell>
        <mxCell id="-W3EkcvgGxvH3OZpbfAn-88" value="cantidad" style="rounded=1;whiteSpace=wrap;html=1;fontSize=12;glass=0;strokeWidth=1;shadow=0;" parent="1" vertex="1">
          <mxGeometry x="-295" y="790" width="120" height="40" as="geometry" />
        </mxCell>
        <mxCell id="-W3EkcvgGxvH3OZpbfAn-101" value="(N,M)" style="text;html=1;align=center;verticalAlign=middle;resizable=0;points=[];autosize=1;strokeColor=none;fillColor=none;rotation=0;" parent="1" vertex="1">
          <mxGeometry x="-30" y="748.75" width="50" height="30" as="geometry" />
        </mxCell>
        <mxCell id="JfMjbdt3IaxvPo4gDNUp-8" value="categoria" style="rounded=1;whiteSpace=wrap;html=1;fontSize=12;glass=0;strokeWidth=1;shadow=0;" parent="1" vertex="1">
          <mxGeometry x="210" y="657.0300000000001" width="120" height="40" as="geometry" />
        </mxCell>
        <mxCell id="JfMjbdt3IaxvPo4gDNUp-9" value="&lt;b&gt;&lt;u&gt;id_oferta&lt;/u&gt;&lt;/b&gt;" style="rounded=1;whiteSpace=wrap;html=1;fontSize=12;glass=0;strokeWidth=1;shadow=0;" parent="1" vertex="1">
          <mxGeometry x="210" y="595.63" width="120" height="40" as="geometry" />
        </mxCell>
        <mxCell id="JfMjbdt3IaxvPo4gDNUp-12" value="fecha_inicio" style="rounded=1;whiteSpace=wrap;html=1;fontSize=12;glass=0;strokeWidth=1;shadow=0;" parent="1" vertex="1">
          <mxGeometry x="210" y="775.4699999999999" width="120" height="40" as="geometry" />
        </mxCell>
        <mxCell id="JfMjbdt3IaxvPo4gDNUp-13" value="fecha_final" style="rounded=1;whiteSpace=wrap;html=1;fontSize=12;glass=0;strokeWidth=1;shadow=0;" parent="1" vertex="1">
          <mxGeometry x="210" y="830" width="120" height="40" as="geometry" />
        </mxCell>
        <mxCell id="zYOUfVRbWbdnZnZJbM3p-1" value="porcentaje" style="rounded=1;whiteSpace=wrap;html=1;fontSize=12;glass=0;strokeWidth=1;shadow=0;" parent="1" vertex="1">
          <mxGeometry x="210" y="716.09" width="120" height="40" as="geometry" />
        </mxCell>
        <mxCell id="QXuAp1z63WRNJgjyR6KG-1" value="imagen" style="rounded=1;whiteSpace=wrap;html=1;fontSize=12;glass=0;strokeWidth=1;shadow=0;" parent="1" vertex="1">
          <mxGeometry x="-310" y="676.09" width="120" height="40" as="geometry" />
        </mxCell>
        <mxCell id="QXuAp1z63WRNJgjyR6KG-5" value="categoria" style="rounded=1;whiteSpace=wrap;html=1;fontSize=12;glass=0;strokeWidth=1;shadow=0;" parent="1" vertex="1">
          <mxGeometry x="-310" y="484.21" width="120" height="40" as="geometry" />
        </mxCell>
        <mxCell id="KpYN-lRRDEY_0RzQuRkS-1" value="precio" style="rounded=1;whiteSpace=wrap;html=1;fontSize=12;glass=0;strokeWidth=1;shadow=0;" parent="1" vertex="1">
          <mxGeometry x="4.93" y="970" width="120" height="40" as="geometry" />
        </mxCell>
        <mxCell id="0ua6qyDJJBUqq2Hq9dzX-3" value="total_pedido" style="rounded=1;whiteSpace=wrap;html=1;fontSize=12;glass=0;strokeWidth=1;shadow=0;" parent="1" vertex="1">
          <mxGeometry x="20" y="53.75" width="120" height="40" as="geometry" />
        </mxCell>
        <mxCell id="25aY-dR5gtiGgvHFgRM7-3" style="edgeStyle=orthogonalEdgeStyle;rounded=0;orthogonalLoop=1;jettySize=auto;html=1;entryX=1;entryY=0.5;entryDx=0;entryDy=0;endArrow=none;endFill=0;" edge="1" parent="1" source="25aY-dR5gtiGgvHFgRM7-1" target="25aY-dR5gtiGgvHFgRM7-2">
          <mxGeometry relative="1" as="geometry" />
        </mxCell>
        <mxCell id="25aY-dR5gtiGgvHFgRM7-11" style="edgeStyle=orthogonalEdgeStyle;rounded=0;orthogonalLoop=1;jettySize=auto;html=1;exitX=0;exitY=0.5;exitDx=0;exitDy=0;entryX=1;entryY=0.5;entryDx=0;entryDy=0;endArrow=none;endFill=0;" edge="1" parent="1" source="25aY-dR5gtiGgvHFgRM7-1" target="25aY-dR5gtiGgvHFgRM7-7">
          <mxGeometry relative="1" as="geometry" />
        </mxCell>
        <mxCell id="25aY-dR5gtiGgvHFgRM7-12" style="edgeStyle=orthogonalEdgeStyle;rounded=0;orthogonalLoop=1;jettySize=auto;html=1;exitX=0;exitY=0.5;exitDx=0;exitDy=0;entryX=1;entryY=0.5;entryDx=0;entryDy=0;endArrow=none;endFill=0;" edge="1" parent="1" source="25aY-dR5gtiGgvHFgRM7-1" target="25aY-dR5gtiGgvHFgRM7-9">
          <mxGeometry relative="1" as="geometry" />
        </mxCell>
        <mxCell id="25aY-dR5gtiGgvHFgRM7-13" style="edgeStyle=orthogonalEdgeStyle;rounded=0;orthogonalLoop=1;jettySize=auto;html=1;exitX=0;exitY=0.5;exitDx=0;exitDy=0;entryX=1;entryY=0.5;entryDx=0;entryDy=0;endArrow=none;endFill=0;" edge="1" parent="1" source="25aY-dR5gtiGgvHFgRM7-1" target="25aY-dR5gtiGgvHFgRM7-10">
          <mxGeometry relative="1" as="geometry" />
        </mxCell>
        <mxCell id="25aY-dR5gtiGgvHFgRM7-1" value="Log" style="rounded=1;whiteSpace=wrap;html=1;fontSize=12;glass=0;strokeWidth=1;shadow=0;" vertex="1" parent="1">
          <mxGeometry x="-610" y="708.75" width="120" height="40" as="geometry" />
        </mxCell>
        <mxCell id="25aY-dR5gtiGgvHFgRM7-2" value="&lt;b&gt;&lt;u&gt;id_log&lt;/u&gt;&lt;/b&gt;" style="rounded=1;whiteSpace=wrap;html=1;fontSize=12;glass=0;strokeWidth=1;shadow=0;" vertex="1" parent="1">
          <mxGeometry x="-770" y="585" width="120" height="40" as="geometry" />
        </mxCell>
        <mxCell id="25aY-dR5gtiGgvHFgRM7-7" value="correo" style="rounded=1;whiteSpace=wrap;html=1;fontSize=12;glass=0;strokeWidth=1;shadow=0;" vertex="1" parent="1">
          <mxGeometry x="-770" y="648.75" width="120" height="40" as="geometry" />
        </mxCell>
        <mxCell id="25aY-dR5gtiGgvHFgRM7-9" value="mensaje" style="rounded=1;whiteSpace=wrap;html=1;fontSize=12;glass=0;strokeWidth=1;shadow=0;" vertex="1" parent="1">
          <mxGeometry x="-770" y="717.5" width="120" height="40" as="geometry" />
        </mxCell>
        <mxCell id="25aY-dR5gtiGgvHFgRM7-10" value="fecha" style="rounded=1;whiteSpace=wrap;html=1;fontSize=12;glass=0;strokeWidth=1;shadow=0;" vertex="1" parent="1">
          <mxGeometry x="-770" y="778.75" width="120" height="40" as="geometry" />
        </mxCell>
      </root>
    </mxGraphModel>
  </diagram>
  <diagram id="ew4CszBF35OLYgGfPviB" name="Diagrama de clases">
    <mxGraphModel dx="1509" dy="813" grid="1" gridSize="10" guides="1" tooltips="1" connect="1" arrows="1" fold="1" page="1" pageScale="1" pageWidth="827" pageHeight="1169" math="0" shadow="0">
      <root>
        <mxCell id="0" />
        <mxCell id="1" parent="0" />
        <mxCell id="Q5baJCPEJX8oHc_p0h-h-44" value="Ingrediente" style="shape=table;startSize=30;container=1;collapsible=0;childLayout=tableLayout;" parent="1" vertex="1">
          <mxGeometry x="770" y="696" width="160" height="81" as="geometry" />
        </mxCell>
        <mxCell id="Q5baJCPEJX8oHc_p0h-h-45" value="" style="shape=tableRow;horizontal=0;startSize=0;swimlaneHead=0;swimlaneBody=0;strokeColor=inherit;top=0;left=0;bottom=0;right=0;collapsible=0;dropTarget=0;fillColor=none;points=[[0,0.5],[1,0.5]];portConstraint=eastwest;" parent="Q5baJCPEJX8oHc_p0h-h-44" vertex="1">
          <mxGeometry y="30" width="160" height="26" as="geometry" />
        </mxCell>
        <mxCell id="Q5baJCPEJX8oHc_p0h-h-46" value="(PK) id_ingrediente" style="shape=partialRectangle;html=1;whiteSpace=wrap;connectable=0;strokeColor=inherit;overflow=hidden;fillColor=none;top=0;left=0;bottom=0;right=0;pointerEvents=1;" parent="Q5baJCPEJX8oHc_p0h-h-45" vertex="1">
          <mxGeometry width="160" height="26" as="geometry">
            <mxRectangle width="160" height="26" as="alternateBounds" />
          </mxGeometry>
        </mxCell>
        <mxCell id="Q5baJCPEJX8oHc_p0h-h-51" value="" style="shape=tableRow;horizontal=0;startSize=0;swimlaneHead=0;swimlaneBody=0;strokeColor=inherit;top=0;left=0;bottom=0;right=0;collapsible=0;dropTarget=0;fillColor=none;points=[[0,0.5],[1,0.5]];portConstraint=eastwest;" parent="Q5baJCPEJX8oHc_p0h-h-44" vertex="1">
          <mxGeometry y="56" width="160" height="25" as="geometry" />
        </mxCell>
        <mxCell id="Q5baJCPEJX8oHc_p0h-h-52" value="nombre" style="shape=partialRectangle;html=1;whiteSpace=wrap;connectable=0;strokeColor=inherit;overflow=hidden;fillColor=none;top=0;left=0;bottom=0;right=0;pointerEvents=1;" parent="Q5baJCPEJX8oHc_p0h-h-51" vertex="1">
          <mxGeometry width="160" height="25" as="geometry">
            <mxRectangle width="160" height="25" as="alternateBounds" />
          </mxGeometry>
        </mxCell>
        <mxCell id="Q5baJCPEJX8oHc_p0h-h-78" value="USUARIO" style="shape=table;startSize=30;container=1;collapsible=0;childLayout=tableLayout;" parent="1" vertex="1">
          <mxGeometry x="390" y="440" width="170" height="217" as="geometry" />
        </mxCell>
        <mxCell id="Q5baJCPEJX8oHc_p0h-h-79" value="" style="shape=tableRow;horizontal=0;startSize=0;swimlaneHead=0;swimlaneBody=0;strokeColor=inherit;top=0;left=0;bottom=0;right=0;collapsible=0;dropTarget=0;fillColor=none;points=[[0,0.5],[1,0.5]];portConstraint=eastwest;" parent="Q5baJCPEJX8oHc_p0h-h-78" vertex="1">
          <mxGeometry y="30" width="170" height="26" as="geometry" />
        </mxCell>
        <mxCell id="Q5baJCPEJX8oHc_p0h-h-80" value="(PK) id_usuario" style="shape=partialRectangle;html=1;whiteSpace=wrap;connectable=0;strokeColor=inherit;overflow=hidden;fillColor=none;top=0;left=0;bottom=0;right=0;pointerEvents=1;" parent="Q5baJCPEJX8oHc_p0h-h-79" vertex="1">
          <mxGeometry width="170" height="26" as="geometry">
            <mxRectangle width="170" height="26" as="alternateBounds" />
          </mxGeometry>
        </mxCell>
        <mxCell id="Q5baJCPEJX8oHc_p0h-h-81" value="" style="shape=tableRow;horizontal=0;startSize=0;swimlaneHead=0;swimlaneBody=0;strokeColor=inherit;top=0;left=0;bottom=0;right=0;collapsible=0;dropTarget=0;fillColor=none;points=[[0,0.5],[1,0.5]];portConstraint=eastwest;" parent="Q5baJCPEJX8oHc_p0h-h-78" vertex="1">
          <mxGeometry y="56" width="170" height="26" as="geometry" />
        </mxCell>
        <mxCell id="Q5baJCPEJX8oHc_p0h-h-82" value="nombre" style="shape=partialRectangle;html=1;whiteSpace=wrap;connectable=0;strokeColor=inherit;overflow=hidden;fillColor=none;top=0;left=0;bottom=0;right=0;pointerEvents=1;" parent="Q5baJCPEJX8oHc_p0h-h-81" vertex="1">
          <mxGeometry width="170" height="26" as="geometry">
            <mxRectangle width="170" height="26" as="alternateBounds" />
          </mxGeometry>
        </mxCell>
        <mxCell id="Q5baJCPEJX8oHc_p0h-h-83" value="" style="shape=tableRow;horizontal=0;startSize=0;swimlaneHead=0;swimlaneBody=0;strokeColor=inherit;top=0;left=0;bottom=0;right=0;collapsible=0;dropTarget=0;fillColor=none;points=[[0,0.5],[1,0.5]];portConstraint=eastwest;" parent="Q5baJCPEJX8oHc_p0h-h-78" vertex="1">
          <mxGeometry y="82" width="170" height="27" as="geometry" />
        </mxCell>
        <mxCell id="Q5baJCPEJX8oHc_p0h-h-84" value="apellido" style="shape=partialRectangle;html=1;whiteSpace=wrap;connectable=0;strokeColor=inherit;overflow=hidden;fillColor=none;top=0;left=0;bottom=0;right=0;pointerEvents=1;" parent="Q5baJCPEJX8oHc_p0h-h-83" vertex="1">
          <mxGeometry width="170" height="27" as="geometry">
            <mxRectangle width="170" height="27" as="alternateBounds" />
          </mxGeometry>
        </mxCell>
        <mxCell id="JdtmKbdEPrjb2yY9WMuc-1" style="shape=tableRow;horizontal=0;startSize=0;swimlaneHead=0;swimlaneBody=0;strokeColor=inherit;top=0;left=0;bottom=0;right=0;collapsible=0;dropTarget=0;fillColor=none;points=[[0,0.5],[1,0.5]];portConstraint=eastwest;" parent="Q5baJCPEJX8oHc_p0h-h-78" vertex="1">
          <mxGeometry y="109" width="170" height="31" as="geometry" />
        </mxCell>
        <mxCell id="JdtmKbdEPrjb2yY9WMuc-2" value="correo" style="shape=partialRectangle;html=1;whiteSpace=wrap;connectable=0;strokeColor=inherit;overflow=hidden;fillColor=none;top=0;left=0;bottom=0;right=0;pointerEvents=1;" parent="JdtmKbdEPrjb2yY9WMuc-1" vertex="1">
          <mxGeometry width="170" height="31" as="geometry">
            <mxRectangle width="170" height="31" as="alternateBounds" />
          </mxGeometry>
        </mxCell>
        <mxCell id="hgA6V-47u3uoemqe3xao-1" style="shape=tableRow;horizontal=0;startSize=0;swimlaneHead=0;swimlaneBody=0;strokeColor=inherit;top=0;left=0;bottom=0;right=0;collapsible=0;dropTarget=0;fillColor=none;points=[[0,0.5],[1,0.5]];portConstraint=eastwest;" parent="Q5baJCPEJX8oHc_p0h-h-78" vertex="1">
          <mxGeometry y="140" width="170" height="27" as="geometry" />
        </mxCell>
        <mxCell id="hgA6V-47u3uoemqe3xao-2" value="contraseña" style="shape=partialRectangle;html=1;whiteSpace=wrap;connectable=0;strokeColor=inherit;overflow=hidden;fillColor=none;top=0;left=0;bottom=0;right=0;pointerEvents=1;" parent="hgA6V-47u3uoemqe3xao-1" vertex="1">
          <mxGeometry width="170" height="27" as="geometry">
            <mxRectangle width="170" height="27" as="alternateBounds" />
          </mxGeometry>
        </mxCell>
        <mxCell id="Q5baJCPEJX8oHc_p0h-h-85" value="" style="shape=tableRow;horizontal=0;startSize=0;swimlaneHead=0;swimlaneBody=0;strokeColor=inherit;top=0;left=0;bottom=0;right=0;collapsible=0;dropTarget=0;fillColor=none;points=[[0,0.5],[1,0.5]];portConstraint=eastwest;" parent="Q5baJCPEJX8oHc_p0h-h-78" vertex="1">
          <mxGeometry y="167" width="170" height="25" as="geometry" />
        </mxCell>
        <mxCell id="Q5baJCPEJX8oHc_p0h-h-86" value="direccion" style="shape=partialRectangle;html=1;whiteSpace=wrap;connectable=0;strokeColor=inherit;overflow=hidden;fillColor=none;top=0;left=0;bottom=0;right=0;pointerEvents=1;" parent="Q5baJCPEJX8oHc_p0h-h-85" vertex="1">
          <mxGeometry width="170" height="25" as="geometry">
            <mxRectangle width="170" height="25" as="alternateBounds" />
          </mxGeometry>
        </mxCell>
        <mxCell id="zPin1ewyBZS07MD8RY0m-1" style="shape=tableRow;horizontal=0;startSize=0;swimlaneHead=0;swimlaneBody=0;strokeColor=inherit;top=0;left=0;bottom=0;right=0;collapsible=0;dropTarget=0;fillColor=none;points=[[0,0.5],[1,0.5]];portConstraint=eastwest;" parent="Q5baJCPEJX8oHc_p0h-h-78" vertex="1">
          <mxGeometry y="192" width="170" height="25" as="geometry" />
        </mxCell>
        <mxCell id="zPin1ewyBZS07MD8RY0m-2" value="rol" style="shape=partialRectangle;html=1;whiteSpace=wrap;connectable=0;strokeColor=inherit;overflow=hidden;fillColor=none;top=0;left=0;bottom=0;right=0;pointerEvents=1;" parent="zPin1ewyBZS07MD8RY0m-1" vertex="1">
          <mxGeometry width="170" height="25" as="geometry">
            <mxRectangle width="170" height="25" as="alternateBounds" />
          </mxGeometry>
        </mxCell>
        <mxCell id="Q5baJCPEJX8oHc_p0h-h-100" value="PEDIDO" style="shape=table;startSize=29;container=1;collapsible=0;childLayout=tableLayout;" parent="1" vertex="1">
          <mxGeometry x="390" y="250" width="170" height="107" as="geometry" />
        </mxCell>
        <mxCell id="Q5baJCPEJX8oHc_p0h-h-101" value="" style="shape=tableRow;horizontal=0;startSize=0;swimlaneHead=0;swimlaneBody=0;strokeColor=inherit;top=0;left=0;bottom=0;right=0;collapsible=0;dropTarget=0;fillColor=none;points=[[0,0.5],[1,0.5]];portConstraint=eastwest;" parent="Q5baJCPEJX8oHc_p0h-h-100" vertex="1">
          <mxGeometry y="29" width="170" height="26" as="geometry" />
        </mxCell>
        <mxCell id="Q5baJCPEJX8oHc_p0h-h-102" value="(PK) id_pedido" style="shape=partialRectangle;html=1;whiteSpace=wrap;connectable=0;strokeColor=inherit;overflow=hidden;fillColor=none;top=0;left=0;bottom=0;right=0;pointerEvents=1;" parent="Q5baJCPEJX8oHc_p0h-h-101" vertex="1">
          <mxGeometry width="170" height="26" as="geometry">
            <mxRectangle width="170" height="26" as="alternateBounds" />
          </mxGeometry>
        </mxCell>
        <mxCell id="Q5baJCPEJX8oHc_p0h-h-103" value="" style="shape=tableRow;horizontal=0;startSize=0;swimlaneHead=0;swimlaneBody=0;strokeColor=inherit;top=0;left=0;bottom=0;right=0;collapsible=0;dropTarget=0;fillColor=none;points=[[0,0.5],[1,0.5]];portConstraint=eastwest;" parent="Q5baJCPEJX8oHc_p0h-h-100" vertex="1">
          <mxGeometry y="55" width="170" height="26" as="geometry" />
        </mxCell>
        <mxCell id="Q5baJCPEJX8oHc_p0h-h-104" value="Fecha" style="shape=partialRectangle;html=1;whiteSpace=wrap;connectable=0;strokeColor=inherit;overflow=hidden;fillColor=none;top=0;left=0;bottom=0;right=0;pointerEvents=1;" parent="Q5baJCPEJX8oHc_p0h-h-103" vertex="1">
          <mxGeometry width="170" height="26" as="geometry">
            <mxRectangle width="170" height="26" as="alternateBounds" />
          </mxGeometry>
        </mxCell>
        <mxCell id="Q5baJCPEJX8oHc_p0h-h-109" style="shape=tableRow;horizontal=0;startSize=0;swimlaneHead=0;swimlaneBody=0;strokeColor=inherit;top=0;left=0;bottom=0;right=0;collapsible=0;dropTarget=0;fillColor=none;points=[[0,0.5],[1,0.5]];portConstraint=eastwest;" parent="Q5baJCPEJX8oHc_p0h-h-100" vertex="1">
          <mxGeometry y="81" width="170" height="26" as="geometry" />
        </mxCell>
        <mxCell id="Q5baJCPEJX8oHc_p0h-h-110" value="(FK) id_usuario" style="shape=partialRectangle;html=1;whiteSpace=wrap;connectable=0;strokeColor=inherit;overflow=hidden;fillColor=none;top=0;left=0;bottom=0;right=0;pointerEvents=1;" parent="Q5baJCPEJX8oHc_p0h-h-109" vertex="1">
          <mxGeometry width="170" height="26" as="geometry">
            <mxRectangle width="170" height="26" as="alternateBounds" />
          </mxGeometry>
        </mxCell>
        <mxCell id="Q5baJCPEJX8oHc_p0h-h-111" value="DETALLE PEDIDO&#xa;(Aqui se guardan los productos del pedido)" style="shape=table;startSize=40;container=1;collapsible=0;childLayout=tableLayout;" parent="1" vertex="1">
          <mxGeometry x="640" y="250" width="240" height="143" as="geometry" />
        </mxCell>
        <mxCell id="Q5baJCPEJX8oHc_p0h-h-112" value="" style="shape=tableRow;horizontal=0;startSize=0;swimlaneHead=0;swimlaneBody=0;strokeColor=inherit;top=0;left=0;bottom=0;right=0;collapsible=0;dropTarget=0;fillColor=none;points=[[0,0.5],[1,0.5]];portConstraint=eastwest;" parent="Q5baJCPEJX8oHc_p0h-h-111" vertex="1">
          <mxGeometry y="40" width="240" height="26" as="geometry" />
        </mxCell>
        <mxCell id="Q5baJCPEJX8oHc_p0h-h-113" value="(PK) id_dpedido" style="shape=partialRectangle;html=1;whiteSpace=wrap;connectable=0;strokeColor=inherit;overflow=hidden;fillColor=none;top=0;left=0;bottom=0;right=0;pointerEvents=1;" parent="Q5baJCPEJX8oHc_p0h-h-112" vertex="1">
          <mxGeometry width="240" height="26" as="geometry">
            <mxRectangle width="240" height="26" as="alternateBounds" />
          </mxGeometry>
        </mxCell>
        <mxCell id="Q5baJCPEJX8oHc_p0h-h-114" value="" style="shape=tableRow;horizontal=0;startSize=0;swimlaneHead=0;swimlaneBody=0;strokeColor=inherit;top=0;left=0;bottom=0;right=0;collapsible=0;dropTarget=0;fillColor=none;points=[[0,0.5],[1,0.5]];portConstraint=eastwest;" parent="Q5baJCPEJX8oHc_p0h-h-111" vertex="1">
          <mxGeometry y="66" width="240" height="26" as="geometry" />
        </mxCell>
        <mxCell id="Q5baJCPEJX8oHc_p0h-h-115" value="cantidad" style="shape=partialRectangle;html=1;whiteSpace=wrap;connectable=0;strokeColor=inherit;overflow=hidden;fillColor=none;top=0;left=0;bottom=0;right=0;pointerEvents=1;" parent="Q5baJCPEJX8oHc_p0h-h-114" vertex="1">
          <mxGeometry width="240" height="26" as="geometry">
            <mxRectangle width="240" height="26" as="alternateBounds" />
          </mxGeometry>
        </mxCell>
        <mxCell id="Q5baJCPEJX8oHc_p0h-h-118" value="" style="shape=tableRow;horizontal=0;startSize=0;swimlaneHead=0;swimlaneBody=0;strokeColor=inherit;top=0;left=0;bottom=0;right=0;collapsible=0;dropTarget=0;fillColor=none;points=[[0,0.5],[1,0.5]];portConstraint=eastwest;" parent="Q5baJCPEJX8oHc_p0h-h-111" vertex="1">
          <mxGeometry y="92" width="240" height="25" as="geometry" />
        </mxCell>
        <mxCell id="Q5baJCPEJX8oHc_p0h-h-119" value="(FK) id_pedido" style="shape=partialRectangle;html=1;whiteSpace=wrap;connectable=0;strokeColor=inherit;overflow=hidden;fillColor=none;top=0;left=0;bottom=0;right=0;pointerEvents=1;" parent="Q5baJCPEJX8oHc_p0h-h-118" vertex="1">
          <mxGeometry width="240" height="25" as="geometry">
            <mxRectangle width="240" height="25" as="alternateBounds" />
          </mxGeometry>
        </mxCell>
        <mxCell id="Q5baJCPEJX8oHc_p0h-h-120" style="shape=tableRow;horizontal=0;startSize=0;swimlaneHead=0;swimlaneBody=0;strokeColor=inherit;top=0;left=0;bottom=0;right=0;collapsible=0;dropTarget=0;fillColor=none;points=[[0,0.5],[1,0.5]];portConstraint=eastwest;" parent="Q5baJCPEJX8oHc_p0h-h-111" vertex="1">
          <mxGeometry y="117" width="240" height="26" as="geometry" />
        </mxCell>
        <mxCell id="Q5baJCPEJX8oHc_p0h-h-121" value="(FK) id_producto" style="shape=partialRectangle;html=1;whiteSpace=wrap;connectable=0;strokeColor=inherit;overflow=hidden;fillColor=none;top=0;left=0;bottom=0;right=0;pointerEvents=1;" parent="Q5baJCPEJX8oHc_p0h-h-120" vertex="1">
          <mxGeometry width="240" height="26" as="geometry">
            <mxRectangle width="240" height="26" as="alternateBounds" />
          </mxGeometry>
        </mxCell>
        <mxCell id="zPin1ewyBZS07MD8RY0m-3" value="PRODUCTO" style="shape=table;startSize=30;container=1;collapsible=0;childLayout=tableLayout;" parent="1" vertex="1">
          <mxGeometry x="940" y="197.5" width="160" height="162" as="geometry" />
        </mxCell>
        <mxCell id="zPin1ewyBZS07MD8RY0m-4" value="" style="shape=tableRow;horizontal=0;startSize=0;swimlaneHead=0;swimlaneBody=0;strokeColor=inherit;top=0;left=0;bottom=0;right=0;collapsible=0;dropTarget=0;fillColor=none;points=[[0,0.5],[1,0.5]];portConstraint=eastwest;" parent="zPin1ewyBZS07MD8RY0m-3" vertex="1">
          <mxGeometry y="30" width="160" height="26" as="geometry" />
        </mxCell>
        <mxCell id="zPin1ewyBZS07MD8RY0m-5" value="(PK) id_producto" style="shape=partialRectangle;html=1;whiteSpace=wrap;connectable=0;strokeColor=inherit;overflow=hidden;fillColor=none;top=0;left=0;bottom=0;right=0;pointerEvents=1;" parent="zPin1ewyBZS07MD8RY0m-4" vertex="1">
          <mxGeometry width="160" height="26" as="geometry">
            <mxRectangle width="160" height="26" as="alternateBounds" />
          </mxGeometry>
        </mxCell>
        <mxCell id="cbCDWkHoS5Ry6vAlSchS-7" style="shape=tableRow;horizontal=0;startSize=0;swimlaneHead=0;swimlaneBody=0;strokeColor=inherit;top=0;left=0;bottom=0;right=0;collapsible=0;dropTarget=0;fillColor=none;points=[[0,0.5],[1,0.5]];portConstraint=eastwest;" parent="zPin1ewyBZS07MD8RY0m-3" vertex="1">
          <mxGeometry y="56" width="160" height="26" as="geometry" />
        </mxCell>
        <mxCell id="cbCDWkHoS5Ry6vAlSchS-8" value="nombre" style="shape=partialRectangle;html=1;whiteSpace=wrap;connectable=0;strokeColor=inherit;overflow=hidden;fillColor=none;top=0;left=0;bottom=0;right=0;pointerEvents=1;" parent="cbCDWkHoS5Ry6vAlSchS-7" vertex="1">
          <mxGeometry width="160" height="26" as="geometry">
            <mxRectangle width="160" height="26" as="alternateBounds" />
          </mxGeometry>
        </mxCell>
        <mxCell id="cbCDWkHoS5Ry6vAlSchS-9" style="shape=tableRow;horizontal=0;startSize=0;swimlaneHead=0;swimlaneBody=0;strokeColor=inherit;top=0;left=0;bottom=0;right=0;collapsible=0;dropTarget=0;fillColor=none;points=[[0,0.5],[1,0.5]];portConstraint=eastwest;" parent="zPin1ewyBZS07MD8RY0m-3" vertex="1">
          <mxGeometry y="82" width="160" height="26" as="geometry" />
        </mxCell>
        <mxCell id="cbCDWkHoS5Ry6vAlSchS-10" value="descripcion" style="shape=partialRectangle;html=1;whiteSpace=wrap;connectable=0;strokeColor=inherit;overflow=hidden;fillColor=none;top=0;left=0;bottom=0;right=0;pointerEvents=1;" parent="cbCDWkHoS5Ry6vAlSchS-9" vertex="1">
          <mxGeometry width="160" height="26" as="geometry">
            <mxRectangle width="160" height="26" as="alternateBounds" />
          </mxGeometry>
        </mxCell>
        <mxCell id="cbCDWkHoS5Ry6vAlSchS-11" style="shape=tableRow;horizontal=0;startSize=0;swimlaneHead=0;swimlaneBody=0;strokeColor=inherit;top=0;left=0;bottom=0;right=0;collapsible=0;dropTarget=0;fillColor=none;points=[[0,0.5],[1,0.5]];portConstraint=eastwest;" parent="zPin1ewyBZS07MD8RY0m-3" vertex="1">
          <mxGeometry y="108" width="160" height="26" as="geometry" />
        </mxCell>
        <mxCell id="cbCDWkHoS5Ry6vAlSchS-12" value="precio" style="shape=partialRectangle;html=1;whiteSpace=wrap;connectable=0;strokeColor=inherit;overflow=hidden;fillColor=none;top=0;left=0;bottom=0;right=0;pointerEvents=1;" parent="cbCDWkHoS5Ry6vAlSchS-11" vertex="1">
          <mxGeometry width="160" height="26" as="geometry">
            <mxRectangle width="160" height="26" as="alternateBounds" />
          </mxGeometry>
        </mxCell>
        <mxCell id="QpeX-m4DpOp3ZUcxmbsE-1" style="shape=tableRow;horizontal=0;startSize=0;swimlaneHead=0;swimlaneBody=0;strokeColor=inherit;top=0;left=0;bottom=0;right=0;collapsible=0;dropTarget=0;fillColor=none;points=[[0,0.5],[1,0.5]];portConstraint=eastwest;" vertex="1" parent="zPin1ewyBZS07MD8RY0m-3">
          <mxGeometry y="134" width="160" height="28" as="geometry" />
        </mxCell>
        <mxCell id="QpeX-m4DpOp3ZUcxmbsE-2" value="(FK) id_oferta" style="shape=partialRectangle;html=1;whiteSpace=wrap;connectable=0;strokeColor=inherit;overflow=hidden;fillColor=none;top=0;left=0;bottom=0;right=0;pointerEvents=1;" vertex="1" parent="QpeX-m4DpOp3ZUcxmbsE-1">
          <mxGeometry width="160" height="28" as="geometry">
            <mxRectangle width="160" height="28" as="alternateBounds" />
          </mxGeometry>
        </mxCell>
        <mxCell id="PsKPootqzA-roR9DMfm8-1" value="MODIFICAR INGREDIENTES" style="shape=table;startSize=30;container=1;collapsible=0;childLayout=tableLayout;" parent="1" vertex="1">
          <mxGeometry x="640" y="430" width="240" height="141" as="geometry" />
        </mxCell>
        <mxCell id="PsKPootqzA-roR9DMfm8-2" value="" style="shape=tableRow;horizontal=0;startSize=0;swimlaneHead=0;swimlaneBody=0;strokeColor=inherit;top=0;left=0;bottom=0;right=0;collapsible=0;dropTarget=0;fillColor=none;points=[[0,0.5],[1,0.5]];portConstraint=eastwest;" parent="PsKPootqzA-roR9DMfm8-1" vertex="1">
          <mxGeometry y="30" width="240" height="28" as="geometry" />
        </mxCell>
        <mxCell id="PsKPootqzA-roR9DMfm8-3" value="(PK) id_mingrediente" style="shape=partialRectangle;html=1;whiteSpace=wrap;connectable=0;strokeColor=inherit;overflow=hidden;fillColor=none;top=0;left=0;bottom=0;right=0;pointerEvents=1;" parent="PsKPootqzA-roR9DMfm8-2" vertex="1">
          <mxGeometry width="240" height="28" as="geometry">
            <mxRectangle width="240" height="28" as="alternateBounds" />
          </mxGeometry>
        </mxCell>
        <mxCell id="PsKPootqzA-roR9DMfm8-10" style="shape=tableRow;horizontal=0;startSize=0;swimlaneHead=0;swimlaneBody=0;strokeColor=inherit;top=0;left=0;bottom=0;right=0;collapsible=0;dropTarget=0;fillColor=none;points=[[0,0.5],[1,0.5]];portConstraint=eastwest;" parent="PsKPootqzA-roR9DMfm8-1" vertex="1">
          <mxGeometry y="58" width="240" height="28" as="geometry" />
        </mxCell>
        <mxCell id="PsKPootqzA-roR9DMfm8-11" value="cantidad" style="shape=partialRectangle;html=1;whiteSpace=wrap;connectable=0;strokeColor=inherit;overflow=hidden;fillColor=none;top=0;left=0;bottom=0;right=0;pointerEvents=1;" parent="PsKPootqzA-roR9DMfm8-10" vertex="1">
          <mxGeometry width="240" height="28" as="geometry">
            <mxRectangle width="240" height="28" as="alternateBounds" />
          </mxGeometry>
        </mxCell>
        <mxCell id="Mct0JT-E6gdVeMms-0cC-1" style="shape=tableRow;horizontal=0;startSize=0;swimlaneHead=0;swimlaneBody=0;strokeColor=inherit;top=0;left=0;bottom=0;right=0;collapsible=0;dropTarget=0;fillColor=none;points=[[0,0.5],[1,0.5]];portConstraint=eastwest;" parent="PsKPootqzA-roR9DMfm8-1" vertex="1">
          <mxGeometry y="86" width="240" height="28" as="geometry" />
        </mxCell>
        <mxCell id="Mct0JT-E6gdVeMms-0cC-2" value="(FK) id_dpedido" style="shape=partialRectangle;html=1;whiteSpace=wrap;connectable=0;strokeColor=inherit;overflow=hidden;fillColor=none;top=0;left=0;bottom=0;right=0;pointerEvents=1;" parent="Mct0JT-E6gdVeMms-0cC-1" vertex="1">
          <mxGeometry width="240" height="28" as="geometry">
            <mxRectangle width="240" height="28" as="alternateBounds" />
          </mxGeometry>
        </mxCell>
        <mxCell id="PsKPootqzA-roR9DMfm8-12" style="shape=tableRow;horizontal=0;startSize=0;swimlaneHead=0;swimlaneBody=0;strokeColor=inherit;top=0;left=0;bottom=0;right=0;collapsible=0;dropTarget=0;fillColor=none;points=[[0,0.5],[1,0.5]];portConstraint=eastwest;" parent="PsKPootqzA-roR9DMfm8-1" vertex="1">
          <mxGeometry y="114" width="240" height="27" as="geometry" />
        </mxCell>
        <mxCell id="PsKPootqzA-roR9DMfm8-13" value="(FK) id_ingrediente" style="shape=partialRectangle;html=1;whiteSpace=wrap;connectable=0;strokeColor=inherit;overflow=hidden;fillColor=none;top=0;left=0;bottom=0;right=0;pointerEvents=1;" parent="PsKPootqzA-roR9DMfm8-12" vertex="1">
          <mxGeometry width="240" height="27" as="geometry">
            <mxRectangle width="240" height="27" as="alternateBounds" />
          </mxGeometry>
        </mxCell>
        <mxCell id="Z_ltKCYhhuT5FwDQnb9J-1" style="edgeStyle=orthogonalEdgeStyle;rounded=0;orthogonalLoop=1;jettySize=auto;html=1;exitX=0;exitY=0.5;exitDx=0;exitDy=0;entryX=0;entryY=0.5;entryDx=0;entryDy=0;" parent="1" source="Q5baJCPEJX8oHc_p0h-h-79" target="Q5baJCPEJX8oHc_p0h-h-109" edge="1">
          <mxGeometry relative="1" as="geometry" />
        </mxCell>
        <mxCell id="Z_ltKCYhhuT5FwDQnb9J-3" style="edgeStyle=orthogonalEdgeStyle;rounded=0;orthogonalLoop=1;jettySize=auto;html=1;entryX=0;entryY=0.5;entryDx=0;entryDy=0;exitX=1;exitY=0.5;exitDx=0;exitDy=0;" parent="1" target="Q5baJCPEJX8oHc_p0h-h-101" edge="1">
          <mxGeometry relative="1" as="geometry">
            <Array as="points">
              <mxPoint x="280" y="480" />
              <mxPoint x="280" y="332" />
              <mxPoint x="330" y="332" />
              <mxPoint x="330" y="292" />
            </Array>
          </mxGeometry>
        </mxCell>
        <mxCell id="UoziswZxgqyNCcuciPJk-28" value="Cantidad Ingredientes Producto" style="shape=table;startSize=40;container=1;collapsible=0;childLayout=tableLayout;" parent="1" vertex="1">
          <mxGeometry x="940" y="430" width="160" height="143" as="geometry" />
        </mxCell>
        <mxCell id="UoziswZxgqyNCcuciPJk-29" value="" style="shape=tableRow;horizontal=0;startSize=0;swimlaneHead=0;swimlaneBody=0;strokeColor=inherit;top=0;left=0;bottom=0;right=0;collapsible=0;dropTarget=0;fillColor=none;points=[[0,0.5],[1,0.5]];portConstraint=eastwest;" parent="UoziswZxgqyNCcuciPJk-28" vertex="1">
          <mxGeometry y="40" width="160" height="26" as="geometry" />
        </mxCell>
        <mxCell id="UoziswZxgqyNCcuciPJk-30" value="(PK) ID_cingredientes" style="shape=partialRectangle;html=1;whiteSpace=wrap;connectable=0;strokeColor=inherit;overflow=hidden;fillColor=none;top=0;left=0;bottom=0;right=0;pointerEvents=1;" parent="UoziswZxgqyNCcuciPJk-29" vertex="1">
          <mxGeometry width="160" height="26" as="geometry">
            <mxRectangle width="160" height="26" as="alternateBounds" />
          </mxGeometry>
        </mxCell>
        <mxCell id="UoziswZxgqyNCcuciPJk-31" value="" style="shape=tableRow;horizontal=0;startSize=0;swimlaneHead=0;swimlaneBody=0;strokeColor=inherit;top=0;left=0;bottom=0;right=0;collapsible=0;dropTarget=0;fillColor=none;points=[[0,0.5],[1,0.5]];portConstraint=eastwest;" parent="UoziswZxgqyNCcuciPJk-28" vertex="1">
          <mxGeometry y="66" width="160" height="25" as="geometry" />
        </mxCell>
        <mxCell id="UoziswZxgqyNCcuciPJk-32" value="cantidad" style="shape=partialRectangle;html=1;whiteSpace=wrap;connectable=0;strokeColor=inherit;overflow=hidden;fillColor=none;top=0;left=0;bottom=0;right=0;pointerEvents=1;" parent="UoziswZxgqyNCcuciPJk-31" vertex="1">
          <mxGeometry width="160" height="25" as="geometry">
            <mxRectangle width="160" height="25" as="alternateBounds" />
          </mxGeometry>
        </mxCell>
        <mxCell id="UoziswZxgqyNCcuciPJk-33" style="shape=tableRow;horizontal=0;startSize=0;swimlaneHead=0;swimlaneBody=0;strokeColor=inherit;top=0;left=0;bottom=0;right=0;collapsible=0;dropTarget=0;fillColor=none;points=[[0,0.5],[1,0.5]];portConstraint=eastwest;" parent="UoziswZxgqyNCcuciPJk-28" vertex="1">
          <mxGeometry y="91" width="160" height="26" as="geometry" />
        </mxCell>
        <mxCell id="UoziswZxgqyNCcuciPJk-34" value="(FK) id_producto" style="shape=partialRectangle;html=1;whiteSpace=wrap;connectable=0;strokeColor=inherit;overflow=hidden;fillColor=none;top=0;left=0;bottom=0;right=0;pointerEvents=1;" parent="UoziswZxgqyNCcuciPJk-33" vertex="1">
          <mxGeometry width="160" height="26" as="geometry">
            <mxRectangle width="160" height="26" as="alternateBounds" />
          </mxGeometry>
        </mxCell>
        <mxCell id="UoziswZxgqyNCcuciPJk-39" style="shape=tableRow;horizontal=0;startSize=0;swimlaneHead=0;swimlaneBody=0;strokeColor=inherit;top=0;left=0;bottom=0;right=0;collapsible=0;dropTarget=0;fillColor=none;points=[[0,0.5],[1,0.5]];portConstraint=eastwest;" parent="UoziswZxgqyNCcuciPJk-28" vertex="1">
          <mxGeometry y="117" width="160" height="26" as="geometry" />
        </mxCell>
        <mxCell id="UoziswZxgqyNCcuciPJk-40" value="(FK) id_ingrediente" style="shape=partialRectangle;html=1;whiteSpace=wrap;connectable=0;strokeColor=inherit;overflow=hidden;fillColor=none;top=0;left=0;bottom=0;right=0;pointerEvents=1;" parent="UoziswZxgqyNCcuciPJk-39" vertex="1">
          <mxGeometry width="160" height="26" as="geometry">
            <mxRectangle width="160" height="26" as="alternateBounds" />
          </mxGeometry>
        </mxCell>
        <mxCell id="EFxxKb8ROJKnHoUE_Dg7-1" style="edgeStyle=orthogonalEdgeStyle;rounded=0;orthogonalLoop=1;jettySize=auto;html=1;exitX=1;exitY=0.5;exitDx=0;exitDy=0;entryX=0;entryY=0.5;entryDx=0;entryDy=0;" parent="1" source="Q5baJCPEJX8oHc_p0h-h-101" target="Q5baJCPEJX8oHc_p0h-h-120" edge="1">
          <mxGeometry relative="1" as="geometry" />
        </mxCell>
        <mxCell id="EFxxKb8ROJKnHoUE_Dg7-4" style="edgeStyle=orthogonalEdgeStyle;rounded=0;orthogonalLoop=1;jettySize=auto;html=1;exitX=1;exitY=0.5;exitDx=0;exitDy=0;" parent="1" target="Q5baJCPEJX8oHc_p0h-h-112" edge="1">
          <mxGeometry relative="1" as="geometry" />
        </mxCell>
        <mxCell id="EFxxKb8ROJKnHoUE_Dg7-5" style="edgeStyle=orthogonalEdgeStyle;rounded=0;orthogonalLoop=1;jettySize=auto;html=1;exitX=1;exitY=0.5;exitDx=0;exitDy=0;entryX=0;entryY=0.5;entryDx=0;entryDy=0;" parent="1" source="Q5baJCPEJX8oHc_p0h-h-118" target="zPin1ewyBZS07MD8RY0m-4" edge="1">
          <mxGeometry relative="1" as="geometry" />
        </mxCell>
        <mxCell id="FUOrdx8V2gzE8TAy9kYx-1" value="OFERTA" style="shape=table;startSize=30;container=1;collapsible=0;childLayout=tableLayout;" parent="1" vertex="1">
          <mxGeometry x="1170" y="300" width="160" height="140.00000000000023" as="geometry" />
        </mxCell>
        <mxCell id="FUOrdx8V2gzE8TAy9kYx-2" value="" style="shape=tableRow;horizontal=0;startSize=0;swimlaneHead=0;swimlaneBody=0;strokeColor=inherit;top=0;left=0;bottom=0;right=0;collapsible=0;dropTarget=0;fillColor=none;points=[[0,0.5],[1,0.5]];portConstraint=eastwest;" parent="FUOrdx8V2gzE8TAy9kYx-1" vertex="1">
          <mxGeometry y="30" width="160" height="30" as="geometry" />
        </mxCell>
        <mxCell id="FUOrdx8V2gzE8TAy9kYx-3" value="(PK) id_oferta" style="shape=partialRectangle;html=1;whiteSpace=wrap;connectable=0;strokeColor=inherit;overflow=hidden;fillColor=none;top=0;left=0;bottom=0;right=0;pointerEvents=1;" parent="FUOrdx8V2gzE8TAy9kYx-2" vertex="1">
          <mxGeometry width="160" height="30" as="geometry">
            <mxRectangle width="160" height="30" as="alternateBounds" />
          </mxGeometry>
        </mxCell>
        <mxCell id="FUOrdx8V2gzE8TAy9kYx-4" value="" style="shape=tableRow;horizontal=0;startSize=0;swimlaneHead=0;swimlaneBody=0;strokeColor=inherit;top=0;left=0;bottom=0;right=0;collapsible=0;dropTarget=0;fillColor=none;points=[[0,0.5],[1,0.5]];portConstraint=eastwest;" parent="FUOrdx8V2gzE8TAy9kYx-1" vertex="1">
          <mxGeometry y="60" width="160" height="26" as="geometry" />
        </mxCell>
        <mxCell id="FUOrdx8V2gzE8TAy9kYx-5" value="categoria" style="shape=partialRectangle;html=1;whiteSpace=wrap;connectable=0;strokeColor=inherit;overflow=hidden;fillColor=none;top=0;left=0;bottom=0;right=0;pointerEvents=1;" parent="FUOrdx8V2gzE8TAy9kYx-4" vertex="1">
          <mxGeometry width="160" height="26" as="geometry">
            <mxRectangle width="160" height="26" as="alternateBounds" />
          </mxGeometry>
        </mxCell>
        <mxCell id="cbCDWkHoS5Ry6vAlSchS-4" style="shape=tableRow;horizontal=0;startSize=0;swimlaneHead=0;swimlaneBody=0;strokeColor=inherit;top=0;left=0;bottom=0;right=0;collapsible=0;dropTarget=0;fillColor=none;points=[[0,0.5],[1,0.5]];portConstraint=eastwest;" parent="FUOrdx8V2gzE8TAy9kYx-1" vertex="1">
          <mxGeometry y="86" width="160" height="27" as="geometry" />
        </mxCell>
        <mxCell id="cbCDWkHoS5Ry6vAlSchS-5" value="fecha_inicio" style="shape=partialRectangle;html=1;whiteSpace=wrap;connectable=0;strokeColor=inherit;overflow=hidden;fillColor=none;top=0;left=0;bottom=0;right=0;pointerEvents=1;" parent="cbCDWkHoS5Ry6vAlSchS-4" vertex="1">
          <mxGeometry width="160" height="27" as="geometry">
            <mxRectangle width="160" height="27" as="alternateBounds" />
          </mxGeometry>
        </mxCell>
        <mxCell id="cbCDWkHoS5Ry6vAlSchS-2" style="shape=tableRow;horizontal=0;startSize=0;swimlaneHead=0;swimlaneBody=0;strokeColor=inherit;top=0;left=0;bottom=0;right=0;collapsible=0;dropTarget=0;fillColor=none;points=[[0,0.5],[1,0.5]];portConstraint=eastwest;" parent="FUOrdx8V2gzE8TAy9kYx-1" vertex="1">
          <mxGeometry y="113" width="160" height="27" as="geometry" />
        </mxCell>
        <mxCell id="cbCDWkHoS5Ry6vAlSchS-3" value="fecha_final" style="shape=partialRectangle;html=1;whiteSpace=wrap;connectable=0;strokeColor=inherit;overflow=hidden;fillColor=none;top=0;left=0;bottom=0;right=0;pointerEvents=1;" parent="cbCDWkHoS5Ry6vAlSchS-2" vertex="1">
          <mxGeometry width="160" height="27" as="geometry">
            <mxRectangle width="160" height="27" as="alternateBounds" />
          </mxGeometry>
        </mxCell>
        <mxCell id="FUOrdx8V2gzE8TAy9kYx-21" style="edgeStyle=orthogonalEdgeStyle;rounded=0;orthogonalLoop=1;jettySize=auto;html=1;exitX=0;exitY=0.5;exitDx=0;exitDy=0;entryX=0;entryY=0.5;entryDx=0;entryDy=0;" parent="1" target="FUOrdx8V2gzE8TAy9kYx-2" edge="1">
          <mxGeometry relative="1" as="geometry" />
        </mxCell>
        <mxCell id="hgA6V-47u3uoemqe3xao-3" style="edgeStyle=orthogonalEdgeStyle;rounded=0;orthogonalLoop=1;jettySize=auto;html=1;" parent="1" target="Q5baJCPEJX8oHc_p0h-h-112" edge="1">
          <mxGeometry relative="1" as="geometry" />
        </mxCell>
        <mxCell id="hgA6V-47u3uoemqe3xao-4" style="edgeStyle=orthogonalEdgeStyle;rounded=0;orthogonalLoop=1;jettySize=auto;html=1;exitX=1;exitY=0.5;exitDx=0;exitDy=0;entryX=1;entryY=0.5;entryDx=0;entryDy=0;" parent="1" target="UoziswZxgqyNCcuciPJk-29" edge="1">
          <mxGeometry relative="1" as="geometry" />
        </mxCell>
        <mxCell id="enz__JVXXhfaxJ6mJEUS-3" style="edgeStyle=orthogonalEdgeStyle;rounded=0;orthogonalLoop=1;jettySize=auto;html=1;exitX=0;exitY=0.5;exitDx=0;exitDy=0;entryX=1;entryY=0.5;entryDx=0;entryDy=0;" parent="1" target="PsKPootqzA-roR9DMfm8-2" edge="1">
          <mxGeometry relative="1" as="geometry" />
        </mxCell>
        <mxCell id="enz__JVXXhfaxJ6mJEUS-4" style="edgeStyle=orthogonalEdgeStyle;rounded=0;orthogonalLoop=1;jettySize=auto;html=1;exitX=0;exitY=0.5;exitDx=0;exitDy=0;entryX=0;entryY=0.5;entryDx=0;entryDy=0;startArrow=classic;startFill=1;endArrow=none;endFill=0;" parent="1" source="PsKPootqzA-roR9DMfm8-12" target="Q5baJCPEJX8oHc_p0h-h-45" edge="1">
          <mxGeometry relative="1" as="geometry" />
        </mxCell>
        <mxCell id="cnY_ZZjil__LbwWKPUZl-1" style="edgeStyle=orthogonalEdgeStyle;rounded=0;orthogonalLoop=1;jettySize=auto;html=1;exitX=1;exitY=0.5;exitDx=0;exitDy=0;entryX=1;entryY=0.5;entryDx=0;entryDy=0;startArrow=none;startFill=0;" parent="1" source="UoziswZxgqyNCcuciPJk-39" target="Q5baJCPEJX8oHc_p0h-h-45" edge="1">
          <mxGeometry relative="1" as="geometry" />
        </mxCell>
        <mxCell id="cbCDWkHoS5Ry6vAlSchS-1" style="edgeStyle=orthogonalEdgeStyle;rounded=0;orthogonalLoop=1;jettySize=auto;html=1;startArrow=classic;startFill=1;" parent="1" source="zPin1ewyBZS07MD8RY0m-8" edge="1">
          <mxGeometry relative="1" as="geometry">
            <mxPoint x="940" y="742" as="targetPoint" />
            <Array as="points">
              <mxPoint x="1210" y="346" />
              <mxPoint x="1210" y="740" />
              <mxPoint x="941" y="740" />
            </Array>
          </mxGeometry>
        </mxCell>
        <mxCell id="QpeX-m4DpOp3ZUcxmbsE-3" style="edgeStyle=orthogonalEdgeStyle;rounded=0;orthogonalLoop=1;jettySize=auto;html=1;entryX=1;entryY=0.5;entryDx=0;entryDy=0;endArrow=none;endFill=0;startArrow=classic;startFill=1;" edge="1" parent="1" source="FUOrdx8V2gzE8TAy9kYx-2" target="QpeX-m4DpOp3ZUcxmbsE-1">
          <mxGeometry relative="1" as="geometry" />
        </mxCell>
        <mxCell id="jeKApA1xqJyJRX1P2oEL-1" style="edgeStyle=orthogonalEdgeStyle;rounded=0;orthogonalLoop=1;jettySize=auto;html=1;entryX=1;entryY=0.5;entryDx=0;entryDy=0;exitX=1;exitY=0.5;exitDx=0;exitDy=0;" edge="1" parent="1" source="zPin1ewyBZS07MD8RY0m-4" target="UoziswZxgqyNCcuciPJk-33">
          <mxGeometry relative="1" as="geometry" />
        </mxCell>
        <mxCell id="jeKApA1xqJyJRX1P2oEL-4" style="edgeStyle=orthogonalEdgeStyle;rounded=0;orthogonalLoop=1;jettySize=auto;html=1;entryX=0;entryY=0.5;entryDx=0;entryDy=0;" edge="1" parent="1" source="Q5baJCPEJX8oHc_p0h-h-112" target="Mct0JT-E6gdVeMms-0cC-1">
          <mxGeometry relative="1" as="geometry" />
        </mxCell>
      </root>
    </mxGraphModel>
  </diagram>
</mxfile>
